<svg width="29" height="26" viewBox="0 0 29 26" fill="none" xmlns="http://www.w3.org/2000/svg">
<g id="house-solid 1" clip-path="url(#clip0_98_791)">
<path id="Vector" d="M28.9901 12.9746C28.9901 13.8887 28.2349 14.6047 27.379 14.6047H25.7679L25.8032 22.7398C25.8032 22.877 25.7931 23.0141 25.778 23.1512V23.9738C25.778 25.0961 24.8768 26.0051 23.7641 26.0051H22.9585C22.9032 26.0051 22.8478 26.0051 22.7924 26C22.7219 26.0051 22.6514 26.0051 22.5809 26.0051L20.9447 26H19.7363C18.6237 26 17.7224 25.091 17.7224 23.9687V22.75V19.5C17.7224 18.6012 17.0025 17.875 16.1113 17.875H12.8891C11.998 17.875 11.278 18.6012 11.278 19.5V22.75V23.9687C11.278 25.091 10.3768 26 9.2641 26H8.05577H6.44969C6.37417 26 6.29865 25.9949 6.22313 25.9898C6.16271 25.9949 6.1023 26 6.04188 26H5.23633C4.12365 26 3.22244 25.091 3.22244 23.9687V18.2812C3.22244 18.2355 3.22244 18.1848 3.22747 18.1391V14.5996H1.61636C0.71011 14.5996 0.00524902 13.8887 0.00524902 12.9695C0.00524902 12.5125 0.156291 12.1062 0.508721 11.7508L13.4127 0.40625C13.7651 0.0507812 14.1679 0 14.5204 0C14.8728 0 15.2756 0.101562 15.5776 0.355469L28.4363 11.7559C28.8391 12.1113 29.0405 12.5176 28.9901 12.9746Z" fill="#333333"/>
</g>
<defs>
<clipPath id="clip0_98_791">
<rect width="29" height="26" fill="white"/>
</clipPath>
</defs>
</svg>
