<svg width="31" height="28" viewBox="0 0 31 28" fill="none" xmlns="http://www.w3.org/2000/svg">
<path id="Vector" d="M13.3472 0H11.1944C9.76823 0 8.61111 1.17578 8.61111 2.625V8.75C8.61111 10.6805 10.1557 12.25 12.0556 12.25H18.9444C20.8443 12.25 22.3889 10.6805 22.3889 8.75V2.625C22.3889 1.17578 21.2318 0 19.8056 0H17.6528V4.375C17.6528 4.85625 17.2653 5.25 16.7917 5.25H14.2083C13.7347 5.25 13.3472 4.85625 13.3472 4.375V0ZM3.44444 14C1.54462 14 0 15.5695 0 17.5V24.5C0 26.4305 1.54462 28 3.44444 28H12.0556C13.9554 28 15.5 26.4305 15.5 24.5V17.5C15.5 15.5695 13.9554 14 12.0556 14H9.90278V18.375C9.90278 18.8563 9.51528 19.25 9.04167 19.25H6.45833C5.98472 19.25 5.59722 18.8563 5.59722 18.375V14H3.44444ZM18.9444 28H27.5556C29.4554 28 31 26.4305 31 24.5V17.5C31 15.5695 29.4554 14 27.5556 14H25.4028V18.375C25.4028 18.8563 25.0153 19.25 24.5417 19.25H21.9583C21.4847 19.25 21.0972 18.8563 21.0972 18.375V14H18.9444C18.1372 14 17.3944 14.2789 16.8078 14.7547C17.0715 15.3234 17.2222 15.9578 17.2222 16.625V25.375C17.2222 26.0422 17.0715 26.6766 16.8078 27.2453C17.3944 27.7211 18.1372 28 18.9444 28Z" fill="white"/>
</svg>
